<?xml version="1.0" encoding="UTF-8" standalone="no"?>
<svg
   xmlns:dc="http://purl.org/dc/elements/1.1/"
   xmlns:cc="http://creativecommons.org/ns#"
   xmlns:rdf="http://www.w3.org/1999/02/22-rdf-syntax-ns#"
   xmlns:svg="http://www.w3.org/2000/svg"
   xmlns="http://www.w3.org/2000/svg"
   version="1.1"
   id="svg2"
   viewBox="0 0 1052.3622 744.09448"
   >
  <defs
     id="defs4" />
  <metadata
     id="metadata7">
    <rdf:RDF>
      <cc:Work
         rdf:about="">
        <dc:format>image/svg+xml</dc:format>
        <dc:type
           rdf:resource="http://purl.org/dc/dcmitype/StillImage" />
        <dc:title></dc:title>
      </cc:Work>
    </rdf:RDF>
  </metadata>
  <g
     id="layer2">
    <rect
       y="228.85577"
       x="353.45187"
       height="63.63961"
       width="12.121831"
       id="rect4241"
       style="fill:#4876b0;fill-opacity:1;stroke:none;stroke-opacity:1" />
    <rect
       style="fill:#4876b0;fill-opacity:1;stroke:none;stroke-opacity:1"
       id="rect4243"
       width="12.121831"
       height="63.63961"
       x="451.45187"
       y="228.85577" />
    <rect
       y="228.85577"
       x="631.4519"
       height="63.63961"
       width="12.121831"
       id="rect4245"
       style="fill:#4876b0;fill-opacity:1;stroke:none;stroke-opacity:1" />
    <rect
       style="fill:#4876b0;fill-opacity:1;stroke:none;stroke-opacity:1"
       id="rect4247"
       width="12.121831"
       height="63.63961"
       x="729.4519"
       y="228.85577" />
    <rect
       transform="matrix(0,1,-1,0,0,0)"
       style="fill:#4876b0;fill-opacity:1;stroke:none;stroke-opacity:1"
       id="rect4251"
       width="12.121831"
       height="63.63961"
       x="184.61467"
       y="-441.33258" />
    <rect
       y="-717.33258"
       x="184.61467"
       height="63.63961"
       width="12.121831"
       id="rect4253"
       style="fill:#4876b0;fill-opacity:1;stroke:none;stroke-opacity:1"
       transform="matrix(0,1,-1,0,0,0)" />
    <rect
       y="290.94235"
       x="872.75757"
       height="63.466423"
       width="16.729652"
       id="rect4255"
       style="fill:#4876b0;fill-opacity:1;stroke:none;stroke-width:1.1731869;stroke-opacity:1" />
    <rect
       style="fill:#4876b0;fill-opacity:1;stroke:none;stroke-width:0.99005723;stroke-opacity:1"
       id="rect5765"
       width="84.862755"
       height="99.004868"
       x="628.19324"
       y="428.51584" />
  </g>
  <g
     transform="translate(0,-308.26772)"
     id="layer1">
    <rect
       transform="matrix(0.98191801,-0.18930671,0.18930671,0.98191801,0,0)"
       y="517.42462"
       x="-36.137218"
       height="94.068718"
       width="174.56984"
       id="rect3336"
       style="fill-opacity:1;stroke:none;stroke-width:0.89541614;stroke-opacity:1" />
    <path
       transform="translate(0,308.26772)"
       id="rect3338"
       d="M 297.99414 166.28711 L 297.99414 247.09961 L 382.84766 247.09961 L 382.84766 166.28711 L 351.5332 166.28711 L 351.5332 184.98047 L 329.31055 184.98047 L 329.31055 166.28711 L 297.99414 166.28711 z "
       style="fill-opacity:1;stroke:none;stroke-opacity:1" />
    <rect
       style="fill-opacity:1;stroke:none;stroke-opacity:1"
       id="rect3340"
       width="84.852814"
       height="80.812202"
       x="297.995"
       y="579.69208" />
    <path
       id="rect3342"
       transform="translate(0,308.26772)"
       d="M 435.375 166.28711 L 435.375 247.09961 L 520.22852 247.09961 L 520.22852 166.28711 L 488.91406 166.28711 L 488.91406 184.98047 L 466.69141 184.98047 L 466.69141 166.28711 L 435.375 166.28711 z "
       style="fill-opacity:1;stroke:none;stroke-opacity:1" />
    <rect
       y="579.69208"
       x="435.37576"
       height="80.812202"
       width="84.852814"
       id="rect3344"
       style="fill-opacity:1;stroke:none;stroke-opacity:1" />
    <path
       id="rect3352"
       transform="translate(0,308.26772)"
       d="M 574.77734 166.28711 L 574.77734 247.09961 L 659.62891 247.09961 L 659.62891 166.28711 L 628.31445 166.28711 L 628.31445 184.98047 L 606.0918 184.98047 L 606.0918 166.28711 L 574.77734 166.28711 z "
       style="fill-opacity:1;stroke:none;stroke-opacity:1" />
    <rect
       y="579.69208"
       x="574.77679"
       height="80.812202"
       width="84.852814"
       id="rect3354"
       style="fill-opacity:1;stroke:none;stroke-opacity:1" />
    <path
       id="rect3356"
       transform="translate(0,308.26772)"
       d="M 712.1582 166.28711 L 712.1582 247.09961 L 797.00977 247.09961 L 797.00977 166.28711 L 765.69531 166.28711 L 765.69531 184.98047 L 743.47266 184.98047 L 743.47266 166.28711 L 712.1582 166.28711 z "
       style="fill-opacity:1;stroke:none;stroke-opacity:1" />
    <rect
       style="fill-opacity:1;stroke:none;stroke-opacity:1"
       id="rect3358"
       width="84.852814"
       height="80.812202"
       x="712.15753"
       y="579.69208" />
    <path
       id="rect3382"
       d="m 854.56055,522.18569 0,92.78906 96.83007,0 0,-92.78906 -37.30468,0 0,18.62109 -22.22266,0 0,-18.62109 -37.30273,0 z"
       style="fill-opacity:1;stroke:none;stroke-width:1.14467549;stroke-opacity:1" />
    <rect
       y="650.40277"
       x="848.42657"
       height="80.812202"
       width="84.852814"
       id="rect3384"
       style="fill-opacity:1;stroke:none;stroke-opacity:1" />
    <g
       style="stroke:none;fill-opacity:1"
       transform="matrix(1.1352234,-0.05773493,0.06572283,0.99724928,-145.14223,22.536071)"
       id="g3400">
      <rect
         style="fill-opacity:1;stroke:none;stroke-width:1.14070749;stroke-opacity:1"
         id="rect3392"
         width="120.06742"
         height="57.437988"
         x="409.18216"
         y="346.33597" />
      <rect
         y="346.33597"
         x="565.61365"
         height="57.437988"
         width="120.06742"
         id="rect3398"
         style="fill-opacity:1;stroke:none;stroke-width:1.14070749;stroke-opacity:1" />
    </g>
    <path
       id="path3404"
       transform="translate(0,308.26772)"
       d="M 875.29688 28.90625 A 80.307129 55.053314 0 0 0 823.10352 42.205078 L 835.26367 73.117188 L 810.39648 116.26953 A 80.307129 55.053314 0 0 0 875.29688 139.01367 A 80.307129 55.053314 0 0 0 955.60352 83.958984 A 80.307129 55.053314 0 0 0 875.29688 28.90625 z "
       style="fill-opacity:1;stroke:none;stroke-opacity:1" />
    <rect
       y="736.78119"
       x="487.89633"
       height="99.009651"
       width="166.68988"
       id="rect3421"
       style="fill-opacity:1;stroke:none;stroke-width:0.98530096;stroke-opacity:1" />
    <rect
       y="736.78357"
       x="684.62463"
       height="99.004868"
       width="84.862755"
       id="rect3423"
       style="fill-opacity:1;stroke:none;stroke-width:0.99005723;stroke-opacity:1" />
    <rect
       y="758.36737"
       x="840.46741"
       height="155.52245"
       width="105.01481"
       id="rect3429"
       style="fill-opacity:1;stroke:none;stroke-width:1.0410558;stroke-opacity:1" />
    <rect
       style="fill-opacity:1;stroke:none;stroke-width:0.98530096;stroke-opacity:1"
       id="rect3431"
       width="166.68988"
       height="99.009651"
       x="624.26691"
       y="918.68988" />
    <path
       id="rect3433"
       transform="translate(0,308.26772)"
       d="M 415.22852 610.41016 L 415.22852 628.21484 A 42.426407 42.426407 0 0 0 382.32227 669.50586 A 42.426407 42.426407 0 0 0 424.74805 711.93164 A 42.426407 42.426407 0 0 0 448.80859 704.39453 L 581.94336 704.39453 L 581.94336 610.41016 L 415.22852 610.41016 z "
       style="fill-opacity:1;stroke:none;stroke-width:0.96004224;stroke-opacity:1" />
    <rect
       y="828.10834"
       x="339.26913"
       height="64.649765"
       width="67.680222"
       id="rect3438"
       style="fill-opacity:1;stroke:none;stroke-opacity:1" />
  </g>
</svg>
